# xmcd
#
# Track frame offsets:
#	150
#	26538
#	44613
#	65494
#
# Disc length: 1028 seconds
#
# Revision: 0
# Processed by: cddbd v1.5.1PL0 Copyright (c) Steve Scherf et al.
# Submitted via: dBpowerAMP V4.0
#
DISCID=31040204
DTITLE=Amor - Brave As You Are [EP]
DYEAR=2004
DGENRE=Blues
TTITLE0=Brave As You Are
TTITLE1=You Should Be Alone
TTITLE2=Sweep The Room
TTITLE3=1999
EXTD=
EXTT0=
EXTT1=
EXTT2=
EXTT3=
PLAYORDER=
